<svg width="24" height="16" viewBox="0 0 24 16" fill="none" xmlns="http://www.w3.org/2000/svg">
<path d="M11.9906 16C6.48547 16 2.09269 12.8111 0 8C2.11155 3.18894 6.50432 0 11.9906 0C17.4768 0 21.8885 3.18894 24 8C21.8885 12.8111 17.4768 16 11.9906 16ZM11.9906 14.0829C16.3456 14.0829 20.0974 11.5945 21.8507 8C20.0974 4.40553 16.3456 1.91705 11.9906 1.91705C7.65436 1.91705 3.90259 4.40553 2.14925 8C3.88374 11.5945 7.63551 14.0829 11.9906 14.0829ZM7.42812 8C7.42812 5.52995 9.46426 3.53917 11.9717 3.53917C14.498 3.53917 16.5342 5.54839 16.5342 8C16.5342 10.47 14.4792 12.4608 11.9717 12.4608C9.46426 12.4608 7.42812 10.4516 7.42812 8ZM12.2545 6.87558C12.2545 7.64977 12.8767 8.2765 13.6874 8.2765C14.4603 8.2765 15.1013 7.64977 15.1013 6.87558C15.1013 6.11982 14.4792 5.49309 13.6874 5.49309C12.8955 5.49309 12.2545 6.10138 12.2545 6.87558Z" fill="#444444"/>
</svg>
