<svg width="32" height="42" viewBox="0 0 32 42" fill="none" xmlns="http://www.w3.org/2000/svg">
<path d="M0 5.78223C0 4.9538 0.671573 4.28223 1.5 4.28223H14.5C15.3284 4.28223 16 4.9538 16 5.78223V14.7822C16 15.6107 16.6716 16.2822 17.5 16.2822H26.5C27.3284 16.2822 28 16.9538 28 17.7822V39.7822C28 40.6107 27.3284 41.2822 26.5 41.2822H1.5C0.671572 41.2822 0 40.6107 0 39.7822V5.78223Z" fill="#909399"/>
<path d="M18.1179 15.2273C17.5571 15.2334 17.1009 14.7773 17.107 14.2165L17.1971 5.95165C17.2067 5.06604 18.2779 4.62918 18.9041 5.25544L27.0789 13.4302C27.7052 14.0565 27.2683 15.1276 26.3827 15.1373L18.1179 15.2273Z" fill="#909399"/>
<path d="M22.9835 30.5737C22.5252 29.8404 21.4252 29.5654 19.5919 29.5654C18.9502 29.5654 18.3085 29.5654 17.6669 29.657C17.2085 29.382 16.7502 29.107 16.3835 28.832C15.4669 28.0987 14.6419 26.7237 14.0002 25.0737C14.0002 25.0737 14.0002 24.982 14.0919 24.8904C14.5502 22.9654 15.0085 20.582 14.0919 19.5737C13.8169 19.2987 13.5419 19.207 13.1752 19.207H12.8085C12.2585 19.207 11.8002 19.757 11.6169 20.307C11.0669 22.232 11.4335 23.332 11.9835 25.0737C11.6169 26.4487 11.1585 27.9154 10.3335 29.4737C9.8752 30.482 9.3252 31.3987 8.95853 32.132C8.40853 32.407 7.9502 32.682 7.6752 32.8654C5.93353 33.9654 5.01686 35.2487 4.9252 35.982C4.83353 36.257 4.83353 36.532 4.9252 36.7154V36.807L5.65853 37.2654C5.84186 37.357 6.11686 37.4487 6.3002 37.4487C7.49186 37.4487 8.86686 36.0737 10.7002 32.8654C10.7919 32.8654 10.8835 32.7737 10.9752 32.7737C12.5335 32.3154 14.3669 31.9487 16.9335 31.6737C18.4002 32.407 20.2335 32.7737 21.3335 32.7737C21.9752 32.7737 22.4335 32.5904 22.7085 32.3154C22.9835 32.0404 23.0752 31.6737 23.1669 31.307C23.1669 31.032 23.1669 30.757 22.9835 30.5737ZM6.11686 36.4404C6.20853 35.8904 6.8502 34.882 7.9502 33.9654C8.13353 33.8737 8.31686 33.6904 8.68353 33.507C7.58353 35.2487 6.75853 36.1654 6.11686 36.4404ZM12.9002 20.2154C12.9919 20.1237 12.9919 20.032 13.0835 20.032L13.2669 20.1237C13.5419 20.4904 13.5419 20.9487 13.3585 21.7737V22.0487C13.2669 22.4154 13.2669 22.782 13.0835 23.2404C12.7169 21.8654 12.7169 20.857 12.9002 20.2154ZM11.0669 31.7654L10.8835 31.857C10.9752 31.3987 11.3419 30.8487 11.6169 30.2987C12.2585 29.0154 12.8085 27.8237 13.0835 26.7237C13.7252 28.0987 14.4585 29.107 15.3752 29.932C15.5585 30.1154 15.7419 30.2987 16.0169 30.3904C14.7335 30.5737 12.9919 31.032 11.0669 31.7654ZM22.1585 31.6737H21.7919C21.1502 31.6737 20.0502 31.3987 18.9502 30.9404C19.0419 30.757 19.2252 30.757 19.3169 30.757C21.4252 30.757 21.9752 31.1237 22.1585 31.307C22.2502 31.3987 22.2502 31.3987 22.2502 31.4904C22.2502 31.582 22.2502 31.582 22.1585 31.6737Z" fill="white"/>
</svg>
