<svg width="32" height="42" viewBox="0 0 32 42" fill="none" xmlns="http://www.w3.org/2000/svg">
<path d="M0 5.78223C0 4.9538 0.671573 4.28223 1.5 4.28223H14.5C15.3284 4.28223 16 4.9538 16 5.78223V14.7822C16 15.6107 16.6716 16.2822 17.5 16.2822H26.5C27.3284 16.2822 28 16.9538 28 17.7822V39.7822C28 40.6107 27.3284 41.2822 26.5 41.2822H1.5C0.671572 41.2822 0 40.6107 0 39.7822V5.78223Z" fill="#909399"/>
<path d="M18.1188 15.2273C17.5581 15.2334 17.1019 14.7773 17.108 14.2165L17.198 5.95165C17.2077 5.06604 18.2788 4.62918 18.9051 5.25544L27.0799 13.4302C27.7062 14.0565 27.2693 15.1276 26.3837 15.1373L18.1188 15.2273Z" fill="#909399"/>
<path d="M22.9826 30.5737C22.5242 29.8404 21.4242 29.5654 19.5909 29.5654C18.9492 29.5654 18.3076 29.5654 17.6659 29.657C17.2076 29.382 16.7492 29.107 16.3826 28.832C15.4659 28.0987 14.6409 26.7237 13.9992 25.0737C13.9992 25.0737 13.9992 24.982 14.0909 24.8904C14.5492 22.9654 15.0076 20.582 14.0909 19.5737C13.8159 19.2987 13.5409 19.207 13.1742 19.207H12.8076C12.2576 19.207 11.7992 19.757 11.6159 20.307C11.0659 22.232 11.4326 23.332 11.9826 25.0737C11.6159 26.4487 11.1576 27.9154 10.3326 29.4737C9.87422 30.482 9.32422 31.3987 8.95755 32.132C8.40755 32.407 7.94922 32.682 7.67422 32.8654C5.93255 33.9654 5.01589 35.2487 4.92422 35.982C4.83255 36.257 4.83255 36.532 4.92422 36.7154V36.807L5.65755 37.2654C5.84089 37.357 6.11589 37.4487 6.29922 37.4487C7.49089 37.4487 8.86589 36.0737 10.6992 32.8654C10.7909 32.8654 10.8826 32.7737 10.9742 32.7737C12.5326 32.3154 14.3659 31.9487 16.9326 31.6737C18.3992 32.407 20.2326 32.7737 21.3326 32.7737C21.9742 32.7737 22.4326 32.5904 22.7076 32.3154C22.9826 32.0404 23.0742 31.6737 23.1659 31.307C23.1659 31.032 23.1659 30.757 22.9826 30.5737ZM6.11589 36.4404C6.20755 35.8904 6.84922 34.882 7.94922 33.9654C8.13255 33.8737 8.31589 33.6904 8.68255 33.507C7.58255 35.2487 6.75755 36.1654 6.11589 36.4404ZM12.8992 20.2154C12.9909 20.1237 12.9909 20.032 13.0826 20.032L13.2659 20.1237C13.5409 20.4904 13.5409 20.9487 13.3576 21.7737V22.0487C13.2659 22.4154 13.2659 22.782 13.0826 23.2404C12.7159 21.8654 12.7159 20.857 12.8992 20.2154ZM11.0659 31.7654L10.8826 31.857C10.9742 31.3987 11.3409 30.8487 11.6159 30.2987C12.2576 29.0154 12.8076 27.8237 13.0826 26.7237C13.7242 28.0987 14.4576 29.107 15.3742 29.932C15.5576 30.1154 15.7409 30.2987 16.0159 30.3904C14.7326 30.5737 12.9909 31.032 11.0659 31.7654ZM22.1576 31.6737H21.7909C21.1492 31.6737 20.0492 31.3987 18.9492 30.9404C19.0409 30.757 19.2242 30.757 19.3159 30.757C21.4242 30.757 21.9742 31.1237 22.1576 31.307C22.2492 31.3987 22.2492 31.3987 22.2492 31.4904C22.2492 31.582 22.2492 31.582 22.1576 31.6737Z" fill="white"/>
</svg>
