<svg width="35" height="35" viewBox="0 0 35 35" fill="none" xmlns="http://www.w3.org/2000/svg">
<path d="M23.7515 8.30859H4.01062V29.6081H9.50507V22.6786H20.0335L24.8373 29.6081H30.9896L25.6926 22.6467C27.3378 22.3914 28.5221 21.7845 29.246 20.8266C29.9697 19.8686 30.3317 18.3357 30.3317 16.2921V14.6954C30.3317 13.4818 30.2003 12.5239 29.9699 11.7895C29.7394 11.055 29.3446 10.4163 28.7853 9.84148C28.1931 9.29862 27.5352 8.91544 26.7455 8.66005C25.9558 8.43656 24.9687 8.30859 23.7515 8.30859ZM22.8632 17.9846H9.50507V13.0028H22.8632C23.6197 13.0028 24.1462 13.1304 24.4094 13.3541C24.6727 13.5776 24.8373 13.9926 24.8373 14.5995V16.3878C24.8373 17.0263 24.6727 17.4414 24.4094 17.6649C24.1462 17.8884 23.6199 17.9843 22.8632 17.9843V17.9846Z" stroke="white" stroke-width="3" stroke-linecap="round" stroke-linejoin="round"/>
<path d="M29.8829 7.94369C30.8892 7.94369 31.7055 7.12757 31.7055 6.12077C31.7055 5.11397 30.8892 4.29785 29.8829 4.29785C28.8759 4.29785 28.0596 5.11397 28.0596 6.12077C28.0596 7.12757 28.8759 7.94369 29.8829 7.94369Z" fill="white"/>
</svg>
