<svg width="24" height="23" viewBox="0 0 24 23" fill="none" xmlns="http://www.w3.org/2000/svg">
<g clip-path="url(#clip0_163_6388)">
<path fill-rule="evenodd" clip-rule="evenodd" d="M24 11.5C24 17.8513 18.6274 23 12 23C5.37258 23 0 17.8513 0 11.5C0 5.14873 5.37258 0 12 0C18.6274 0 24 5.14873 24 11.5ZM12.43 8.48981C11.2628 8.95505 8.93014 9.91798 5.43189 11.3786C4.86383 11.5951 4.56626 11.8069 4.53917 12.014C4.49339 12.3639 4.95071 12.5017 5.57347 12.6894C5.65818 12.7149 5.74595 12.7414 5.83594 12.7694C6.44864 12.9603 7.27283 13.1836 7.70129 13.1924C8.08994 13.2005 8.52373 13.0469 9.00264 12.7318C12.2712 10.6174 13.9584 9.54865 14.0643 9.52561C14.139 9.50936 14.2426 9.48892 14.3128 9.54869C14.3829 9.60845 14.376 9.72164 14.3686 9.752C14.3233 9.93709 12.5281 11.5365 11.5991 12.3642C11.3095 12.6222 11.1041 12.8053 11.0621 12.8471C10.968 12.9407 10.8721 13.0293 10.78 13.1144C10.2108 13.6403 9.78391 14.0346 10.8036 14.6786C11.2936 14.9881 11.6858 15.244 12.077 15.4993C12.5042 15.7781 12.9303 16.0562 13.4816 16.4025C13.6221 16.4908 13.7562 16.5824 13.8869 16.6717C14.3841 17.0114 14.8307 17.3165 15.3826 17.2679C15.7032 17.2396 16.0345 16.9506 16.2027 16.0888C16.6002 14.0522 17.3816 9.63935 17.5622 7.82093C17.578 7.66162 17.5581 7.45772 17.5422 7.36822C17.5262 7.27871 17.4928 7.15119 17.3714 7.05678C17.2276 6.94498 17.0056 6.9214 16.9064 6.92308C16.455 6.9307 15.7626 7.16145 12.43 8.48981Z" fill="white"/>
</g>
<defs>
<clipPath id="clip0_163_6388">
<rect width="24" height="23" fill="white"/>
</clipPath>
</defs>
</svg>
