<svg width="24" height="23" viewBox="0 0 24 23" fill="none" xmlns="http://www.w3.org/2000/svg">
<path fill-rule="evenodd" clip-rule="evenodd" d="M1.68706 1.61677C0 3.23354 0 5.83568 0 11.04V11.96C0 17.1643 0 19.7664 1.68706 21.3832C3.37413 23 6.0894 23 11.52 23H12.48C17.9106 23 20.6258 23 22.313 21.3832C24 19.7664 24 17.1643 24 11.96V11.04C24 5.83568 24 3.23354 22.313 1.61677C20.6258 0 17.9106 0 12.48 0H11.52C6.0894 0 3.37413 0 1.68706 1.61677ZM4.05006 6.99588C4.18006 12.9759 7.30005 16.5696 12.77 16.5696H13.0801V13.1484C15.0901 13.34 16.61 14.7488 17.22 16.5696H20.06C19.28 13.848 17.2299 12.3434 15.95 11.7684C17.2299 11.0592 19.0299 9.33422 19.4599 6.99588H16.8799C16.3199 8.89338 14.6601 10.6184 13.0801 10.7813V6.99588H10.5V13.6275C8.9 13.2442 6.88005 11.385 6.79005 6.99588H4.05006Z" fill="white"/>
</svg>
