<svg width="10" height="5" viewBox="0 0 10 5" fill="none" xmlns="http://www.w3.org/2000/svg">
<path id="Arrow 3" d="M1 2.25C0.861929 2.25 0.75 2.36193 0.75 2.5C0.75 2.63807 0.861929 2.75 1 2.75V2.25ZM9.17678 2.67678C9.27441 2.57915 9.27441 2.42085 9.17678 2.32322L7.58579 0.732233C7.48816 0.634602 7.32986 0.634602 7.23223 0.732233C7.1346 0.829864 7.1346 0.988155 7.23223 1.08579L8.64645 2.5L7.23223 3.91421C7.1346 4.01184 7.1346 4.17014 7.23223 4.26777C7.32986 4.3654 7.48816 4.3654 7.58579 4.26777L9.17678 2.67678ZM1 2.75H9V2.25H1V2.75Z" fill="#3C3D41"/>
</svg>
