<svg width="45" height="45" viewBox="0 0 45 45" fill="none" xmlns="http://www.w3.org/2000/svg">
<rect x="0.5" y="0.5" width="44" height="44" rx="22" stroke="#3C3D41"/>
<path d="M14 21.75C13.5858 21.75 13.25 22.0858 13.25 22.5C13.25 22.9142 13.5858 23.25 14 23.25V21.75ZM31.5303 23.0303C31.8232 22.7374 31.8232 22.2626 31.5303 21.9697L26.7574 17.1967C26.4645 16.9038 25.9896 16.9038 25.6967 17.1967C25.4038 17.4896 25.4038 17.9645 25.6967 18.2574L29.9393 22.5L25.6967 26.7426C25.4038 27.0355 25.4038 27.5104 25.6967 27.8033C25.9896 28.0962 26.4645 28.0962 26.7574 27.8033L31.5303 23.0303ZM14 23.25H31V21.75H14V23.25Z" fill="#3C3D41"/>
</svg>
